HIERARCHY
ROOT Hips
{
 OFFSET 0.000000 0.000000 0.000000
 CHANNELS 6 Xposition Yposition Zposition Yrotation Xrotation Zrotation
 JOINT Chest
 {
  OFFSET 0.000000 9.581000 -0.001100
  CHANNELS 3 Yrotation Xrotation Zrotation
  JOINT Chest2
  {
   OFFSET 0.000000 9.561100 0.002200
   CHANNELS 3 Yrotation Xrotation Zrotation
   JOINT Chest3
   {
    OFFSET 0.000000 9.521100 0.000000
    CHANNELS 3 Yrotation Xrotation Zrotation
    JOINT Chest4
    {
     OFFSET 0.000000 9.511400 0.000000
     CHANNELS 3 Yrotation Xrotation Zrotation
     JOINT Neck
     {
      OFFSET 0.000000 14.375100 0.000000
      CHANNELS 3 Yrotation Xrotation Zrotation
      JOINT Head
      {
       OFFSET 0.000000 8.901200 0.004600
       CHANNELS 3 Yrotation Xrotation Zrotation
       End Site
       {
        OFFSET 0.000000 16.962200 0.002400
       }
      }
     }
     JOINT RightCollar
     {
      OFFSET -2.920100 9.518800 0.000000
      CHANNELS 3 Yrotation Xrotation Zrotation
      JOINT RightShoulder
      {
       OFFSET -13.664500 0.000000 0.000000
       CHANNELS 3 Yrotation Xrotation Zrotation
       JOINT RightElbow
       {
        OFFSET 0.000000 -29.999200 0.000000
        CHANNELS 3 Yrotation Xrotation Zrotation
        JOINT RightWrist
        {
         OFFSET 0.000000 -24.253600 0.000000
         CHANNELS 3 Yrotation Xrotation Zrotation
         End Site
         {
          OFFSET 0.000000 -17.918900 0.000000
         }
        }
       }
      }
     }
     JOINT LeftCollar
     {
      OFFSET 2.920100 9.518800 0.000000
      CHANNELS 3 Yrotation Xrotation Zrotation
      JOINT LeftShoulder
      {
       OFFSET 13.664500 0.000000 0.000000
       CHANNELS 3 Yrotation Xrotation Zrotation
       JOINT LeftElbow
       {
        OFFSET 0.000000 -29.999200 0.000000
        CHANNELS 3 Yrotation Xrotation Zrotation
        JOINT LeftWrist
        {
         OFFSET 0.000000 -24.253600 0.000000
         CHANNELS 3 Yrotation Xrotation Zrotation
         End Site
         {
          OFFSET 0.000000 -17.918900 0.000000
         }
        }
       }
      }
     }
    }
   }
  }
 }
 JOINT RightHip
 {
  OFFSET -7.797300 0.005300 0.000500
  CHANNELS 3 Yrotation Xrotation Zrotation
  JOINT RightKnee
  {
   OFFSET 0.000000 -40.663400 -0.000500
   CHANNELS 3 Yrotation Xrotation Zrotation
   JOINT RightAnkle
   {
    OFFSET 0.000000 -39.523700 -0.000900
    CHANNELS 3 Yrotation Xrotation Zrotation
    JOINT RightToe
    {
     OFFSET 0.000000 -6.418000 14.485300
     CHANNELS 3 Yrotation Xrotation Zrotation
     End Site
     {
      OFFSET 0.000000 -1.465200 6.326400
     }
    }
   }
  }
 }
 JOINT LeftHip
 {
  OFFSET 7.797300 0.005300 0.000500
  CHANNELS 3 Yrotation Xrotation Zrotation
  JOINT LeftKnee
  {
   OFFSET 0.000000 -40.663400 -0.000500
   CHANNELS 3 Yrotation Xrotation Zrotation
   JOINT LeftAnkle
   {
    OFFSET 0.000000 -39.523700 -0.000900
    CHANNELS 3 Yrotation Xrotation Zrotation
    JOINT LeftToe
    {
     OFFSET 0.000000 -6.418000 14.485300
     CHANNELS 3 Yrotation Xrotation Zrotation
     End Site
     {
      OFFSET 0.000000 -1.465200 6.326400
     }
    }
   }
  }
 }
}
MOTION
Frames: 11
Frame Time: 0.008333
-10.091883 126.698755 5.823486 169.250744 -35.500323 -1.945292 1.998168 22.344147 1.689551 0.224581 3.131028 0.175744 0.381520 5.082109 0.302882 1.579215 18.874047 1.322927 12.608209 16.233559 -1.748873 14.686916 -7.934898 -5.011910 -2.783024 2.491899 3.228764 -5.683613 -8.448147 -7.068388 -103.361891 -41.818661 134.965867 -13.255618 -2.641074 -9.666066 -6.636066 2.983576 0.250982 1.438778 -15.896225 6.300387 83.446062 -58.168979 -104.571573 8.790823 -19.713175 20.990306 3.214315 -47.454729 5.743530 -77.013101 82.409336 -76.998083 9.117036 -21.739743 1.427810 -0.002730 -0.008865 -0.001209 -7.390777 -40.964228 -2.432371 53.854131 82.198063 45.584835 2.603816 -7.678336 3.562852 -0.000809 -0.000564 -0.000358
-10.091870 126.698218 5.822091 169.280002 -35.486906 -1.928045 1.983937 22.341907 1.677878 0.240959 3.139549 0.186454 0.381067 5.083089 0.302596 1.558913 18.865622 1.324563 12.735608 16.324974 -1.734358 14.827460 -7.831524 -5.012744 -2.783237 2.559410 3.227070 -5.782310 -8.418434 -7.025550 -103.721909 -41.983941 135.139708 -13.109137 -2.584500 -9.537504 -6.613509 3.002773 0.235586 1.684332 -15.918952 6.240222 84.016763 -58.706022 -104.729268 8.493111 -19.607632 21.370054 3.187774 -47.461950 5.734191 -77.103762 82.409077 -77.123443 9.093223 -21.774275 1.416514 -0.000152 -0.009971 -0.000067 -7.415161 -40.987737 -2.464049 53.934086 82.192452 45.645939 2.603710 -7.673462 3.560202 -0.000871 -0.001326 -0.000386
-10.094937 126.696159 5.821862 169.319948 -35.457801 -1.900872 1.967628 22.333573 1.651683 0.242206 3.141330 0.185985 0.383102 5.085865 0.301900 1.594710 18.881818 1.333231 12.788036 16.389223 -1.714612 14.919433 -7.737178 -5.005133 -2.842908 2.581049 3.233292 -5.892025 -8.365442 -6.970494 -104.136018 -42.206657 135.384375 -12.953035 -2.526207 -9.429072 -6.669958 2.974027 0.246805 1.966982 -15.902126 6.194875 84.740719 -59.361438 -105.032890 8.143522 -19.474391 21.735310 3.167233 -47.486859 5.699279 -77.161670 82.405481 -77.214770 9.073418 -21.792685 1.399978 0.003933 -0.011126 0.001742 -7.438034 -41.028409 -2.513996 53.980851 82.184411 45.675477 2.604809 -7.662288 3.552915 0.002233 -0.000279 0.000989
-10.093136 126.696093 5.819672 169.336715 -35.447713 -1.888043 1.995896 22.351600 1.660680 0.234936 3.139108 0.181290 0.386391 5.089944 0.300800 1.619194 18.895063 1.332170 12.821578 16.451633 -1.690763 14.967926 -7.653456 -4.989140 -2.899479 2.583719 3.248186 -6.011912 -8.297344 -6.918065 -104.575212 -42.468286 135.679164 -12.781448 -2.465435 -9.348714 -6.668862 2.985439 0.273833 2.186395 -15.906278 6.166094 85.589079 -60.075966 -105.462234 7.779663 -19.331876 22.051890 3.137241 -47.497146 5.700830 -77.279090 82.408009 -77.368733 9.073408 -21.795245 1.397136 0.003166 -0.011690 0.001403 -7.463927 -41.046934 -2.526974 54.045522 82.184810 45.721800 2.606742 -7.654680 3.547377 0.001557 -0.001464 0.000690
-10.092415 126.695211 5.818109 169.358497 -35.427654 -1.874325 1.999998 22.352019 1.650763 0.248500 3.149716 0.181384 0.390487 5.094629 0.299379 1.633433 18.901952 1.327972 12.836536 16.514285 -1.666249 14.978044 -7.581729 -4.963788 -2.954237 2.556842 3.271960 -6.135888 -8.205574 -6.882518 -105.019896 -42.751223 136.005953 -12.602438 -2.399034 -9.297084 -6.629878 3.049802 0.308688 2.348874 -15.941293 6.155316 86.522978 -60.788220 -105.984993 7.432542 -19.197134 22.301738 3.113011 -47.517269 5.688623 -77.375390 82.381328 -77.505276 9.108572 -21.777436 1.409760 -0.004217 -0.009161 -0.001868 -7.489555 -41.074986 -2.539820 54.097817 82.184492 45.758914 2.600764 -7.649209 3.539801 0.006182 -0.003308 0.002739
-10.092421 126.693980 5.816603 169.384473 -35.401763 -1.861013 1.977833 22.334623 1.625944 0.285074 3.177455 0.183423 0.395065 5.099594 0.297699 1.649164 18.909171 1.322837 12.825743 16.569350 -1.641398 14.956144 -7.521520 -4.931254 -3.015511 2.568949 3.292305 -6.256896 -8.164476 -6.846017 -105.465821 -43.042450 136.352142 -12.429915 -2.321646 -9.267615 -6.627824 3.085444 0.349869 2.516499 -15.932200 6.163076 87.491817 -61.449483 -106.562069 7.115585 -19.085381 22.491136 3.106990 -47.542240 5.655253 -77.436888 82.362730 -77.577714 9.133475 -21.751933 1.409094 -0.004484 -0.005083 -0.001987 -7.549211 -41.105912 -2.535484 54.142113 82.185999 45.763066 2.600082 -7.648259 3.532708 0.008800 -0.000747 0.003899
-10.092096 126.692948 5.814635 169.406860 -35.375290 -1.849490 2.033360 22.366065 1.637371 0.231841 3.137472 0.178140 0.422260 5.125648 0.295981 1.663926 18.916831 1.317424 12.793990 16.619740 -1.619324 14.908932 -7.468746 -4.896466 -3.071525 2.579328 3.311649 -6.375015 -8.132653 -6.818815 -105.910940 -43.336626 136.708907 -12.273147 -2.238857 -9.249843 -6.641097 3.102492 0.397557 2.680750 -15.886970 6.181481 88.445265 -62.025509 -107.158698 6.833588 -19.005269 22.632816 3.100998 -47.566035 5.626108 -77.503087 82.346180 -77.649156 9.154831 -21.741069 1.404089 -0.004266 -0.005259 -0.001890 -7.577955 -41.135808 -2.546578 54.163495 82.187415 45.766385 2.598600 -7.646221 3.524782 0.009166 0.001070 0.004061
-10.091838 126.692017 5.812263 169.431419 -35.347129 -1.840954 2.050479 22.376293 1.633054 0.213288 3.119954 0.176334 0.444764 5.153034 0.293901 1.677312 18.924756 1.313420 12.744380 16.670576 -1.600770 14.840416 -7.417185 -4.860975 -3.130253 2.583506 3.327668 -6.474217 -8.102411 -6.804236 -106.345845 -43.627077 137.068233 -12.136090 -2.165050 -9.234265 -6.657561 3.113888 0.447019 2.840726 -15.821551 6.209855 89.329069 -62.495764 -107.733823 6.586252 -18.956776 22.737993 3.079898 -47.588290 5.609376 -77.554678 82.340519 -77.714893 9.161756 -21.735720 1.400912 -0.006225 -0.004218 -0.002758 -7.601133 -41.166854 -2.561627 54.183716 82.188450 45.774932 2.597347 -7.646736 3.519142 0.009718 0.001750 0.004306
-10.089619 126.692417 5.808220 169.443239 -35.330168 -1.837381 2.046740 22.369409 1.625875 0.245607 3.152133 0.177191 0.425099 5.135630 0.293472 1.683811 18.928739 1.312000 12.702276 16.755649 -1.586234 14.755950 -7.364534 -4.824159 -3.158192 2.612721 3.325644 -6.560044 -8.076125 -6.801906 -106.762826 -43.900344 137.419623 -12.014323 -2.106294 -9.214103 -6.652575 3.147147 0.481154 2.999492 -15.742611 6.248405 90.106379 -62.858580 -108.253812 6.375766 -18.930817 22.814299 3.062689 -47.603774 5.610903 -77.601583 82.338901 -77.773600 9.163903 -21.716066 1.405536 -0.009188 -0.003399 -0.004071 -7.610052 -41.184767 -2.569646 54.183435 82.197774 45.773281 2.600547 -7.650898 3.512939 0.009933 0.000748 0.004401
-10.087837 126.692813 5.803855 169.457965 -35.311369 -1.835191 2.071757 22.391904 1.630519 0.247738 3.155952 0.176830 0.406780 5.115662 0.293656 1.689396 18.932966 1.310927 12.646184 16.841434 -1.564845 14.663592 -7.312105 -4.788312 -3.189058 2.655249 3.321315 -6.619425 -8.069639 -6.808130 -107.156024 -44.148152 137.753652 -11.905144 -2.060509 -9.185960 -6.647621 3.174734 0.516763 3.160132 -15.654823 6.292697 90.767464 -63.128561 -108.708785 6.206876 -18.911513 22.863346 3.020309 -47.616981 5.647576 -77.637249 82.324345 -77.838059 9.126362 -21.701869 1.408362 -0.009941 -0.000934 -0.004404 -7.640715 -41.207820 -2.574758 54.196412 82.203924 45.773258 2.615815 -7.649992 3.506748 0.005510 -0.001816 0.002441
-10.087216 126.692279 5.800391 169.478748 -35.281539 -1.833164 2.096789 22.438910 1.644655 0.234565 3.125762 0.169880 0.409106 5.121395 0.293414 1.696739 18.941780 1.310078 12.562877 16.895992 -1.543624 14.568639 -7.259753 -4.755155 -3.225790 2.616328 3.332059 -6.662733 -8.020262 -6.843308 -107.515120 -44.362201 138.060600 -11.813349 -2.027023 -9.154229 -6.654007 3.166388 0.557874 3.325701 -15.561065 6.338189 91.312322 -63.327222 -109.097765 6.080919 -18.888365 22.890628 3.002367 -47.644806 5.646964 -77.694896 82.341050 -77.909658 9.134241 -21.701182 1.408551 -0.001710 -0.000695 -0.000758 -7.685739 -41.243141 -2.578681 54.301762 82.202783 45.857531 2.624410 -7.654382 3.499982 0.000926 -0.001950 0.000410
